<svg width="24" height="24" viewBox="0 0 24 24" fill="none" xmlns="http://www.w3.org/2000/svg">
<path d="M5.25024 19.0004H18.7502C19.5032 19.0005 20.1515 19.5319 20.2991 20.27L20.5754 21.6518C20.637 21.9616 20.4005 22.2503 20.0852 22.2504H3.91528C3.59948 22.2504 3.36213 21.961 3.42407 21.6518L3.70142 20.27C3.84905 19.5318 4.49719 19.0004 5.25024 19.0004ZM6.00024 17.5004H18.0002C18.1848 17.5005 18.3443 17.6014 18.4309 17.7504H5.5686C5.65517 17.6012 5.81551 17.5004 6.00024 17.5004ZM10.7834 7.00043H13.217C14.9713 7.00043 16.4551 8.29878 16.6868 10.0375L17.5149 16.2504H12.2502V8.00043H10.8098C9.56141 8.00043 8.50489 8.92117 8.33325 10.1577L7.4895 16.2504H6.4856L7.31372 10.0375C7.54613 8.2987 9.02928 7.00047 10.7834 7.00043ZM10.8098 9.25043H11.0002V16.2504H8.75122L9.57153 10.3286C9.6565 9.71434 10.1899 9.25043 10.8098 9.25043ZM2.61548 9.35493V9.3559L5.51196 10.1313L5.51294 10.1323C5.5623 10.1455 5.59691 10.1866 5.60376 10.2348L5.60083 10.2846C5.58588 10.3402 5.53608 10.3772 5.48071 10.3774C5.46839 10.3774 5.45795 10.3761 5.44849 10.3735H5.44751L2.55005 9.59711L2.50513 9.57465C2.4674 9.54509 2.44832 9.49484 2.46118 9.44477C2.47871 9.37976 2.54408 9.33802 2.61548 9.35493ZM21.384 9.35493C21.4372 9.34162 21.4876 9.36154 21.5168 9.39985L21.5383 9.44477C21.5557 9.51122 21.5162 9.57957 21.4504 9.59711H21.4495L18.553 10.3735H18.551C18.5417 10.376 18.5319 10.3774 18.5198 10.3774C18.4791 10.3774 18.4398 10.3571 18.4163 10.3227L18.3987 10.2836C18.3816 10.2173 18.4219 10.1497 18.4875 10.1323V10.1313L21.384 9.35493ZM5.01685 5.01704C5.06536 4.96852 5.14496 4.96873 5.1936 5.01704L7.31567 7.13911C7.36399 7.18743 7.3644 7.2662 7.31665 7.31489C7.29141 7.33985 7.259 7.352 7.22681 7.352C7.19352 7.35195 7.16197 7.3399 7.13794 7.31586L5.01685 5.19379C4.96857 5.14518 4.96843 5.06556 5.01685 5.01704ZM18.8059 5.01704C18.8545 4.96852 18.9341 4.96859 18.9827 5.01704C19.0313 5.06564 19.0312 5.14517 18.9827 5.19379L16.8625 7.31489C16.8373 7.33982 16.8049 7.352 16.7727 7.352C16.7404 7.35192 16.7087 7.33975 16.6848 7.31586C16.6363 7.26729 16.6364 7.18772 16.6848 7.13911L18.8059 5.01704ZM9.4436 2.46137C9.49332 2.44823 9.54434 2.4679 9.57446 2.50629L9.59692 2.55024L10.3733 5.4477V5.44868C10.3911 5.51447 10.3523 5.58325 10.2854 5.60102L10.2825 5.602C10.2749 5.60412 10.2648 5.60493 10.2522 5.60493C10.1982 5.60478 10.1469 5.56882 10.1311 5.51215H10.1321L9.35571 2.61469V2.61372L9.35181 2.56489C9.35833 2.51691 9.39331 2.4747 9.4436 2.46137ZM14.5559 2.46137C14.6054 2.47466 14.64 2.51652 14.6467 2.56489L14.6438 2.61469L13.8674 5.51215C13.8525 5.56799 13.8019 5.60493 13.7463 5.60493C13.7339 5.60489 13.7246 5.60409 13.717 5.602L13.6702 5.57856C13.6312 5.54829 13.6131 5.49721 13.6262 5.44868V5.4477L14.4026 2.55024C14.4204 2.48519 14.4912 2.4443 14.5559 2.46137Z" stroke="#007F5E" stroke-width="0.5"/>
</svg>
