<svg width="24" height="24" viewBox="0 0 24 24" fill="none" xmlns="http://www.w3.org/2000/svg">
<path fill-rule="evenodd" clip-rule="evenodd" d="M23.93 2.29206C23.8991 1.85107 23.7422 1.42822 23.4781 1.0737C23.214 0.71919 22.8537 0.447909 22.44 0.292065C21.11 -0.257935 19 0.132065 17.45 0.162065C14.88 0.232065 10.001 0.302065 6.27102 0.402065C3.78102 0.462065 1.83102 0.562065 1.42102 0.622065C1.13313 0.666286 0.851282 0.743459 0.581022 0.852065C0.404798 0.921878 0.256966 1.04859 0.161022 1.21206C0.0439833 1.50767 -0.0104965 1.82434 0.00102164 2.14206C0.00102164 2.80206 0.141022 3.56207 0.121022 4.04207C0.120648 4.1167 0.148104 4.18879 0.19803 4.24426C0.247955 4.29973 0.316765 4.3346 0.391022 4.34206C0.465652 4.34244 0.537742 4.31498 0.593214 4.26506C0.648687 4.21513 0.683559 4.14632 0.691022 4.07206C0.691022 3.61206 0.591022 2.81206 0.611022 2.15206C0.602504 1.92271 0.64343 1.69421 0.731022 1.48206C0.731022 1.41206 0.891022 1.41206 1.01102 1.38206C1.185 1.33347 1.36207 1.29672 1.54102 1.27206C1.85102 1.22206 3.04102 1.20206 4.68102 1.20206H17.471C18.799 1.05334 20.1377 1.02322 21.471 1.11206C21.8177 1.12015 22.1494 1.25478 22.4036 1.49057C22.6578 1.72636 22.8169 2.04702 22.851 2.39206L22.921 3.14206C22.921 3.29206 22.781 3.33206 22.671 3.36206C22.3733 3.41438 22.0687 3.41438 21.771 3.36206C20.471 3.36206 11.641 3.62206 6.15102 3.72206H2.26102C2.1846 3.73552 2.11537 3.77548 2.06548 3.83491C2.01559 3.89435 1.98825 3.96947 1.98825 4.04706C1.98825 4.12466 2.01559 4.19978 2.06548 4.25921C2.11537 4.31865 2.1846 4.35861 2.26102 4.37207H8.13102C13.541 4.37207 20.621 4.31207 21.781 4.37207C22.2742 4.41787 22.7715 4.35997 23.241 4.20206C23.4454 4.12422 23.6243 3.99157 23.7582 3.81869C23.8921 3.64581 23.9758 3.43938 24 3.22206L23.93 2.29206ZM21.83 4.56207C21.788 4.55936 21.7458 4.56497 21.706 4.5786C21.6661 4.59222 21.6293 4.61358 21.5977 4.64145C21.5661 4.66933 21.5404 4.70316 21.5219 4.74102C21.5034 4.77888 21.4926 4.82001 21.49 4.86206L21.13 14.8021C21.12 15.4721 21.07 16.1387 20.98 16.8021C20.9232 17.1719 20.7639 17.5183 20.52 17.8021C20.3254 17.997 20.0727 18.1233 19.8 18.1621C19.2748 18.217 18.7453 18.217 18.22 18.1621L12.37 17.9421C11.45 17.9421 10.52 17.8321 9.59102 17.8021H8.37102L5.62102 17.8721C4.92769 17.9221 4.23435 17.9221 3.54102 17.8721C3.16139 17.878 2.7887 17.77 2.47102 17.5621C2.3882 17.4641 2.34222 17.3403 2.34102 17.2121C2.32102 16.8621 2.32102 16.5121 2.34102 16.1621C2.34102 15.2521 2.27102 12.2721 2.28102 9.62206C2.28102 7.68206 2.28102 5.92207 2.40102 5.29207C2.41149 5.25381 2.41372 5.21376 2.40755 5.17458C2.40138 5.1354 2.38695 5.09798 2.36523 5.06479C2.3435 5.03161 2.31498 5.00341 2.28154 4.98208C2.2481 4.96075 2.21051 4.94677 2.17126 4.94106C2.13201 4.93535 2.09199 4.93805 2.05386 4.94897C2.01573 4.95989 1.98036 4.97879 1.95008 5.00441C1.9198 5.03003 1.89531 5.06179 1.87824 5.09759C1.86116 5.13339 1.85188 5.17241 1.85102 5.21206C1.76102 5.72206 1.69102 7.00206 1.63102 8.51206C1.52102 11.3821 1.45102 15.1221 1.44102 16.1821C1.40102 16.6314 1.40102 17.0814 1.44102 17.5321C1.49002 17.8081 1.62202 18.0631 1.82102 18.2621C2.16342 18.5353 2.56932 18.7176 3.00102 18.7921C3.86702 18.9371 4.74502 18.9871 5.62102 18.9421L8.39102 18.8921H9.56102L10.951 18.9721C10.9531 18.9887 10.9531 19.0055 10.951 19.0221C10.9464 19.1121 10.9464 19.2021 10.951 19.2921C10.941 19.3814 10.941 19.4714 10.951 19.5621C10.961 19.6201 10.9777 19.6767 11.001 19.7321C10.6211 19.8252 10.2748 20.0226 10.001 20.3021C9.73053 20.5751 9.54922 20.9238 9.48102 21.3021C9.45672 21.5299 9.48165 21.7603 9.55411 21.9777C9.62657 22.1951 9.74487 22.3944 9.90102 22.5621C10.2678 22.8933 10.7376 23.0881 11.2311 23.1136C11.7247 23.1391 12.212 22.9938 12.611 22.7021C12.8209 22.5492 12.9893 22.3464 13.101 22.1121C13.2361 21.8125 13.2768 21.4789 13.2179 21.1557C13.159 20.8324 13.0031 20.5347 12.771 20.3021C12.5342 20.043 12.2292 19.8559 11.891 19.7621C11.891 19.7021 11.891 19.6321 11.961 19.5621C11.971 19.4674 11.971 19.3741 11.961 19.2821C11.971 19.1921 11.971 19.1021 11.961 19.0121H12.321L18.181 19.1721C18.781 19.2121 19.384 19.1891 19.981 19.1021C20.4574 19.0166 20.8929 18.7778 21.221 18.4221C21.5789 17.9987 21.808 17.4816 21.881 16.9321C21.971 16.2314 22.011 15.5281 22.001 14.8221C22.091 12.6421 22.001 9.47206 22.071 6.82206C22.071 6.10207 22.071 5.43207 22.131 4.82206C22.1176 4.75128 22.0807 4.68711 22.0262 4.63992C21.9718 4.59274 21.902 4.5653 21.83 4.56207ZM12.341 21.8121C12.2872 21.9717 12.1861 22.1113 12.051 22.2121C11.981 22.2621 11.051 22.7321 10.541 22.0521C10.4876 21.974 10.4519 21.8853 10.4364 21.792C10.4209 21.6987 10.4258 21.6032 10.451 21.5121C10.5025 21.3349 10.6073 21.1778 10.751 21.0621C10.8935 20.931 11.0648 20.8351 11.251 20.7821C11.3945 20.7487 11.544 20.7523 11.6857 20.7925C11.8274 20.8328 11.9565 20.9083 12.061 21.0121C12.1829 21.1016 12.2749 21.2259 12.3249 21.3687C12.3748 21.5115 12.3805 21.666 12.341 21.8121Z" fill="#0D0D0D"/>
<path fill-rule="evenodd" clip-rule="evenodd" d="M5.81104 11.3121V12.8321C5.81104 14.0121 5.93104 15.1821 5.99104 16.3721C6.00449 16.4485 6.04445 16.5177 6.10389 16.5676C6.16332 16.6175 6.23844 16.6448 6.31604 16.6448C6.39363 16.6448 6.46875 16.6175 6.52818 16.5676C6.58762 16.5177 6.62758 16.4485 6.64104 16.3721C6.64104 15.8821 6.64104 15.3721 6.71104 14.9121H10.311L11.501 14.8021C12.431 14.6921 13.351 14.5321 14.281 14.3521C14.3229 14.3472 14.3633 14.3339 14.3998 14.313C14.4363 14.292 14.4682 14.2638 14.4934 14.2301C14.5187 14.1964 14.5368 14.1579 14.5467 14.117C14.5566 14.0761 14.5581 14.0336 14.551 13.9921C14.5386 13.908 14.4942 13.832 14.4272 13.7799C14.3601 13.7277 14.2755 13.7034 14.191 13.7121C13.191 13.7721 12.301 13.7121 11.351 13.7821C10.721 13.7821 10.091 13.7821 9.46104 13.8821C8.54104 13.9621 7.65104 14.1221 6.75104 14.2821C6.75104 13.8121 6.75104 13.3321 6.82104 12.8521V12.1221C8.04104 12.0021 9.26104 11.9821 10.501 11.9321C11.371 11.9321 12.241 11.8621 13.101 11.8121C14.571 11.7121 16.021 11.5621 17.471 11.3821C17.5134 11.3793 17.5549 11.3681 17.5929 11.3492C17.631 11.3303 17.6649 11.304 17.6927 11.2719C17.7205 11.2398 17.7417 11.2024 17.7549 11.1621C17.7682 11.1217 17.7734 11.0791 17.77 11.0368C17.7667 10.9944 17.7551 10.9531 17.7357 10.9153C17.7163 10.8775 17.6896 10.8439 17.6571 10.8165C17.6246 10.7891 17.5871 10.7684 17.5465 10.7556C17.506 10.7428 17.4634 10.7382 17.421 10.7421H13.501C12.621 10.7421 11.741 10.7421 10.871 10.8521C9.52458 10.9783 8.18819 11.1955 6.87104 11.5021V9.80207C6.87104 9.49207 6.87104 9.18207 6.81104 8.86207C7.28037 8.9594 7.7537 9.02607 8.23104 9.06207C8.52837 9.0774 8.82504 9.0774 9.12104 9.06207L10.001 9.00207C10.681 8.92207 11.351 8.80207 12.001 8.69207C12.0859 8.69207 12.1673 8.65835 12.2273 8.59834C12.2873 8.53833 12.321 8.45694 12.321 8.37207C12.321 8.2872 12.2873 8.2058 12.2273 8.14579C12.1673 8.08578 12.0859 8.05207 12.001 8.05207C11.331 8.05207 10.651 7.99207 10.001 7.98207H8.23104L6.77104 8.09207C6.77104 7.47207 6.68104 6.84207 6.64104 6.21207C6.62853 6.14562 6.59321 6.08563 6.54117 6.04247C6.48913 5.99931 6.42365 5.97569 6.35604 5.97569C6.28842 5.97569 6.22294 5.99931 6.1709 6.04247C6.11886 6.08563 6.08354 6.14562 6.07104 6.21207L5.92104 8.42207C5.92104 8.87207 5.86104 9.33207 5.84104 9.78207C5.82104 10.2321 5.81104 10.8021 5.81104 11.3121Z" fill="#0D0D0D"/>
</svg>
