<svg width="20" height="21" viewBox="0 0 20 21" fill="none" xmlns="http://www.w3.org/2000/svg">
<path d="M7.55152 2.11813C8.97152 0.21413 11.1065 -0.34187 13.0705 0.19313C15.1905 0.77013 17.0545 2.59113 17.6735 5.12713C17.7055 5.25713 17.7332 5.38713 17.7565 5.51713C16.8629 5.19873 15.891 5.1742 14.9825 5.44713C13.6955 4.49513 12.1015 4.33513 10.6845 4.85713C8.90952 5.51213 7.52352 7.17313 7.20252 9.26313C6.79252 11.9391 8.42252 14.3431 10.7275 16.3871L11.1155 16.7231C10.8025 16.7451 10.4845 16.6961 10.1805 16.6311C10.0243 16.5975 9.86894 16.5602 9.71452 16.5191L9.17752 16.3691C4.40352 15.0261 1.20752 12.9251 0.290519 9.78513C-0.441481 7.27913 0.262519 4.77013 1.81052 3.21013C3.24452 1.76513 5.37052 1.17913 7.55152 2.11813ZM9.17952 9.56613C9.60752 6.77413 12.8365 5.39813 14.4945 7.79413C14.5104 7.8164 14.5344 7.83151 14.5614 7.83619C14.5883 7.84087 14.6161 7.83474 14.6385 7.81913C17.0155 6.13513 19.5785 8.53213 19.0255 11.3021C18.7055 12.9088 17.2155 14.2421 14.5555 15.3021L14.1205 15.4721L13.8575 15.5801C13.6305 15.6691 13.3905 15.7401 13.1735 15.7021C12.9575 15.6641 12.7565 15.5141 12.5735 15.3541L12.2635 15.0741C9.95019 13.0835 8.92219 11.2475 9.17952 9.56613Z" fill="white"/>
</svg>
