<svg width="24" height="24" viewBox="0 0 24 24" fill="none" xmlns="http://www.w3.org/2000/svg">
<path fill-rule="evenodd" clip-rule="evenodd" d="M3.30009 14.6727C3.25395 14.6702 3.20779 14.6772 3.16443 14.6931C3.12106 14.709 3.08139 14.7336 3.04785 14.7654C3.0143 14.7972 2.98759 14.8354 2.96933 14.8779C2.95107 14.9203 2.94166 14.966 2.94166 15.0122C2.94166 15.0584 2.95107 15.1041 2.96933 15.1466C2.98759 15.189 3.0143 15.2273 3.04785 15.2591C3.08139 15.2908 3.12106 15.3155 3.16443 15.3314C3.20779 15.3473 3.25395 15.3542 3.30009 15.3517C8.13009 15.4217 16.6101 14.2937 18.4361 15.2517C18.4961 15.2517 18.5961 15.4517 18.6951 15.5017C18.0171 16.4287 15.6421 16.1197 14.4151 16.2297C12.3401 16.4297 10.2351 16.2997 8.14909 16.3997C5.50509 16.5087 3.32009 17.1467 1.16509 16.7577C0.417087 16.6177 0.637088 15.7607 1.34509 15.6407C1.34509 15.6407 2.56209 15.3307 2.57209 15.2907C2.58357 15.2372 2.58197 15.1817 2.56741 15.1289C2.55285 15.0762 2.52576 15.0277 2.48846 14.9877C2.45115 14.9476 2.40473 14.9171 2.35313 14.8989C2.30153 14.8806 2.24629 14.8751 2.19209 14.8827C1.95309 14.8827 1.33509 15.0027 1.19509 15.0227C-0.201912 15.2817 -0.510913 17.1177 1.00509 17.4567C1.72409 17.6067 2.45709 17.6767 3.19109 17.6667C3.19109 17.7667 2.19309 20.8387 1.95309 22.1657C1.63409 23.9417 4.11809 24.2507 4.78709 22.6847C5.06109 21.9661 5.29375 21.2344 5.48509 20.4897C5.75442 20.5297 6.02375 20.5297 6.29309 20.4897C7.81509 20.6817 9.35109 20.7347 10.8831 20.6497C13.8761 20.4897 13.1281 20.6497 13.8761 20.5697C14.6241 20.4897 14.0661 19.9007 15.1331 22.6647C15.7921 24.2207 18.2761 23.9217 17.9571 22.1357C17.7571 21.1977 16.7791 17.6457 16.5701 17.2767C17.114 17.2724 17.6547 17.1916 18.1761 17.0367C19.1141 16.7477 20.1221 15.8297 19.7131 14.9917C18.6751 12.6477 9.57609 14.5827 3.30009 14.6727ZM3.81009 22.2457C3.65009 22.6147 3.06009 22.6847 3.11009 22.3457C3.69009 18.8037 3.80009 18.0157 3.90909 17.6457C4.43809 17.6457 4.96709 17.5857 5.48509 17.5357C5.05668 19.1491 4.49712 20.7244 3.81009 22.2457ZM13.7851 19.8507C11.2611 19.6307 13.0371 19.3617 5.69409 19.8507C5.87409 19.1027 6.04409 18.3247 6.19309 17.5067C9.18609 17.2467 10.9521 17.5667 13.8151 17.4167C13.9751 18.2647 14.1451 19.0727 14.3441 19.8507C14.1647 19.8857 13.9795 19.8753 13.8051 19.8207L13.7851 19.8507ZM16.9381 22.3447C16.9381 22.6847 16.3991 22.6047 16.2401 22.2447C15.5305 20.6625 14.9532 19.0243 14.5141 17.3467H16.0501C16.0201 17.4167 16.0201 16.3487 16.9581 22.3447H16.9381ZM1.63409 14.4937C1.64065 14.5317 1.65464 14.5681 1.67526 14.6007C1.69587 14.6333 1.72271 14.6616 1.75424 14.6838C1.78576 14.706 1.82136 14.7218 1.85899 14.7303C1.89663 14.7388 1.93557 14.7398 1.97359 14.7332C2.01161 14.7267 2.04796 14.7127 2.08057 14.6921C2.11318 14.6714 2.14141 14.6446 2.16365 14.6131C2.18589 14.5816 2.2017 14.546 2.21018 14.5083C2.21867 14.4707 2.21965 14.4317 2.21309 14.3937C2.15084 13.2527 2.17759 12.1086 2.29309 10.9717C2.24068 9.65866 2.3009 8.34352 2.47309 7.04073C2.71209 6.04273 2.57309 6.23273 4.68709 5.92273C6.48157 5.58772 8.30011 5.39777 10.1251 5.35473C10.1712 5.35724 10.2174 5.35031 10.2607 5.33438C10.3041 5.31845 10.3438 5.29385 10.3773 5.26208C10.4109 5.23031 10.4376 5.19203 10.4558 5.14959C10.4741 5.10715 10.4835 5.06143 10.4835 5.01523C10.4835 4.96903 10.4741 4.92331 10.4558 4.88087C10.4376 4.83843 10.4109 4.80016 10.3773 4.76838C10.3438 4.73661 10.3041 4.71201 10.2607 4.69608C10.2174 4.68015 10.1712 4.67323 10.1251 4.67573H9.72509C9.77416 4.6474 9.81483 4.60655 9.84294 4.55736C9.87105 4.50817 9.8856 4.45239 9.88509 4.39573C9.93826 3.88175 9.90446 3.36248 9.78509 2.85973C9.13709 0.614731 6.98209 1.73273 7.30109 4.68573C6.69309 4.68573 3.25109 4.93573 2.66109 5.09573C1.23509 5.47373 1.47509 6.29173 1.36509 6.78073C1.16909 8.17073 1.16909 9.58073 1.36509 10.9707C1.36709 12.1521 1.45709 13.3264 1.63509 14.4937M8.71809 2.85873C9.31709 4.78473 9.26709 4.64473 9.35609 4.70473H8.12009C8.15884 4.04834 8.36406 3.41282 8.71809 2.85873Z" fill="black"/>
<path fill-rule="evenodd" clip-rule="evenodd" d="M18.1861 11.0317C18.1817 10.9553 18.1482 10.8834 18.0925 10.8309C18.0368 10.7783 17.9632 10.749 17.8866 10.749C17.81 10.749 17.7363 10.7783 17.6807 10.8309C17.625 10.8834 17.5915 10.9553 17.5871 11.0317C17.3719 11.423 17.2591 11.8622 17.2591 12.3087C17.2591 12.7552 17.3719 13.1945 17.5871 13.5857C17.8271 14.1437 18.3361 13.7857 18.2961 13.5857C18.2761 12.0587 18.5861 12.5777 18.1861 11.0317ZM23.8431 2.69073C23.5431 2.20073 23.0551 2.02173 21.7281 1.33373C18.3061 0.0267296 18.1361 -0.13327 17.8871 0.0767296C17.8561 0.107414 17.8315 0.143938 17.8147 0.184188C17.7979 0.224439 17.7893 0.267618 17.7893 0.31123C17.7893 0.354841 17.7979 0.398021 17.8147 0.438271C17.8315 0.478521 17.8561 0.515045 17.8871 0.54573C19.0271 1.1464 20.2011 1.67173 21.4091 2.12173C21.4891 2.18173 22.8751 3.18973 22.9551 3.20973C23.0351 3.22973 19.4331 4.90573 19.2441 4.98473C18.952 5.19951 18.607 5.33086 18.2461 5.36473C18.1561 5.36473 13.3571 3.66773 12.9381 3.36873C13.3081 3.17873 11.5811 4.25673 16.6501 1.04373C16.713 1.00288 16.7582 0.93998 16.7771 0.867405C16.7959 0.79483 16.7868 0.717844 16.7517 0.65161C16.7166 0.585375 16.6579 0.534692 16.5873 0.509543C16.5167 0.484394 16.4392 0.486601 16.3701 0.51573L13.3171 2.05173C12.4491 2.45173 11.3221 2.98973 11.9701 3.73773C11.8186 5.1424 11.7818 6.55708 11.8601 7.96773C11.5979 8.04186 11.3599 8.18398 11.1703 8.3797C10.9806 8.57542 10.8461 8.81779 10.7803 9.08224C10.7146 9.34669 10.7198 9.62383 10.7957 9.88557C10.8715 10.1473 11.0151 10.3844 11.2121 10.5727C12.0101 11.4507 13.6471 11.3907 13.9761 10.1727C14.0466 9.94807 14.0699 9.71124 14.0444 9.47715C14.019 9.24306 13.9454 9.01676 13.8283 8.81248C13.7112 8.6082 13.5531 8.43037 13.3639 8.29015C13.1747 8.14994 12.9586 8.05038 12.7291 7.99773C12.9214 6.81741 12.9618 5.6173 12.8491 4.42673C13.3871 4.72573 14.3551 5.08473 16.5691 5.96273C17.0391 6.12273 17.8671 6.74073 18.4851 6.53173C20.3254 5.78612 22.0924 4.87084 23.7631 3.79773C23.8998 3.64956 23.9822 3.45934 23.9968 3.25823C24.0113 3.05711 23.9571 2.85702 23.8431 2.69073ZM12.9381 8.84673C13.2081 9.17573 13.0981 10.2227 12.6381 10.2427C12.1801 10.2627 11.6411 9.45473 11.7511 9.03573C11.9611 8.29773 12.8681 8.76573 12.9381 8.84573" fill="black"/>
<path fill-rule="evenodd" clip-rule="evenodd" d="M21.7581 5.69373C21.2891 5.69373 21.4181 6.19273 21.3091 6.69173C21.1991 7.18973 20.6111 7.17973 19.9521 7.47973C19.2941 7.77873 18.6151 8.24773 18.0171 8.47673C17.022 8.24007 16.0527 7.90613 15.1231 7.47973C14.9831 6.78073 15.1231 6.40173 14.7141 6.40173C14.6345 6.40173 14.5582 6.43334 14.5019 6.4896C14.4457 6.54586 14.4141 6.62216 14.4141 6.70173V7.69873C14.4191 7.81873 14.4691 7.93373 14.5541 8.01873C15.0741 8.54673 17.5481 9.84373 18.1861 9.67473C18.9834 9.37834 19.7305 8.96113 20.4011 8.43773C20.909 8.21678 21.3749 7.90958 21.7781 7.52973C22.1081 7.10973 22.0381 6.73073 22.0481 6.19273C22.0785 6.14214 22.0948 6.08431 22.0953 6.02527C22.0957 5.96623 22.0803 5.90815 22.0507 5.85708C22.0211 5.80601 21.9783 5.76382 21.9269 5.73492C21.8754 5.70601 21.8171 5.69244 21.7581 5.69373Z" fill="black"/>
</svg>
