<svg width="24" height="24" viewBox="0 0 24 24" fill="none" xmlns="http://www.w3.org/2000/svg">
<path d="M11.9922 14.65C11.4671 14.6505 10.9538 14.4949 10.5172 14.2032C10.0807 13.9114 9.74069 13.4965 9.54034 13.0112C9.33999 12.5258 9.28834 11.9919 9.39193 11.4772C9.49553 10.9624 9.7497 10.49 10.1222 10.12C10.1925 10.0504 10.2757 9.99531 10.3673 9.9579C10.4588 9.92048 10.5568 9.90146 10.6557 9.90192C10.7546 9.90239 10.8525 9.92233 10.9437 9.9606C11.0348 9.99888 11.1176 10.0547 11.1872 10.125C11.2568 10.1953 11.3119 10.2785 11.3493 10.3701C11.3867 10.4616 11.4057 10.5596 11.4053 10.6585C11.4048 10.7574 11.3849 10.8553 11.3466 10.9464C11.3083 11.0376 11.2525 11.1204 11.1822 11.19C11.0743 11.2955 10.9887 11.4215 10.9303 11.5606C10.8719 11.6997 10.8419 11.8491 10.8422 12C10.8289 12.2375 10.8902 12.4732 11.0176 12.6741C11.145 12.875 11.332 13.0311 11.5525 13.1203C11.773 13.2096 12.0159 13.2277 12.2471 13.1721C12.4784 13.1164 12.6865 12.9898 12.8422 12.81C12.9845 12.6689 13.1768 12.5898 13.3772 12.5898C13.5776 12.5898 13.7699 12.6689 13.9122 12.81C14.0509 12.9536 14.1284 13.1454 14.1284 13.345C14.1284 13.5446 14.0509 13.7364 13.9122 13.88C13.6595 14.1296 13.3595 14.3263 13.0298 14.4585C12.7001 14.5907 12.3474 14.6558 11.9922 14.65Z" fill="#007F5E"/>
<path d="M22.2422 12C22.2422 14.7185 21.1623 17.3256 19.24 19.2478C17.3178 21.1701 14.7107 22.25 11.9922 22.25C9.27372 22.25 6.66659 21.1701 4.74434 19.2478C2.82209 17.3256 1.74219 14.7185 1.74219 12C1.74219 9.28153 2.82209 6.6744 4.74434 4.75216C6.66659 2.82991 9.27372 1.75 11.9922 1.75C12.1911 1.75 12.3819 1.82902 12.5225 1.96967C12.6632 2.11032 12.7422 2.30109 12.7422 2.5V6.3C12.7396 6.49811 12.6597 6.68737 12.5197 6.82747C12.3796 6.96756 12.1903 7.04741 11.9922 7.05C11.0128 7.04326 10.0543 7.33257 9.24219 7.88C8.42551 8.42125 7.78863 9.19356 7.41282 10.0984C7.037 11.0032 6.9393 11.9994 7.13219 12.96C7.44587 14.0996 8.15312 15.0912 9.12844 15.7589C10.1038 16.4265 11.2841 16.7271 12.4599 16.6073C13.6358 16.4874 14.7312 15.9548 15.5517 15.1041C16.3723 14.2534 16.8649 13.1394 16.9422 11.96C16.9408 11.8611 16.9593 11.763 16.9965 11.6714C17.0338 11.5798 17.0889 11.4966 17.1589 11.4267C17.2288 11.3568 17.312 11.3016 17.4036 11.2643C17.4952 11.2271 17.5933 11.2087 17.6922 11.21H21.4922C21.5941 11.2099 21.695 11.2305 21.7887 11.2707C21.8825 11.3108 21.967 11.3697 22.0372 11.4436C22.1074 11.5176 22.1618 11.605 22.197 11.7007C22.2323 11.7964 22.2476 11.8982 22.2422 12Z" fill="#007F5E"/>
<path d="M21.882 6.13C21.8559 6.32455 21.7763 6.50803 21.652 6.66L19.482 8.83C19.1734 9.13985 18.7917 9.36685 18.372 9.49C18.1259 9.56558 17.8695 9.60269 17.612 9.6C17.4357 9.61563 17.2584 9.61563 17.082 9.6L15.752 9.34L13.472 11.63C13.3287 11.7663 13.1398 11.8447 12.942 11.85C12.7432 11.8498 12.5526 11.7707 12.412 11.63C12.3413 11.5611 12.2851 11.4786 12.2467 11.3876C12.2083 11.2966 12.1885 11.1988 12.1885 11.1C12.1885 11.0012 12.2083 10.9034 12.2467 10.8124C12.2851 10.7214 12.3413 10.6389 12.412 10.57L14.702 8.27L14.432 6.95C14.3514 6.52453 14.3719 6.08605 14.492 5.67C14.6152 5.25038 14.8422 4.8686 15.152 4.56L17.302 2.41C17.4498 2.27561 17.6344 2.18854 17.832 2.16C18.017 2.1332 18.2058 2.16465 18.372 2.25C18.5371 2.33393 18.6755 2.46202 18.772 2.62C18.8697 2.79678 18.9115 2.99898 18.892 3.2L18.572 5.46L20.822 5.15C21.0104 5.13151 21.1999 5.1703 21.3658 5.2613C21.5318 5.35229 21.6664 5.49125 21.752 5.66C21.8335 5.80354 21.8782 5.965 21.882 6.13Z" fill="#007F5E"/>
</svg>
