<svg width="34" height="34" viewBox="0 0 34 34" fill="none" xmlns="http://www.w3.org/2000/svg">
<path d="M31.1666 26.3571C31.1666 26.6389 31.0546 26.9091 30.8554 27.1084C30.6561 27.3076 30.3859 27.4196 30.1041 27.4196H22.8791C22.6424 28.302 22.1213 29.0817 21.3964 29.6378C20.6716 30.1938 19.7835 30.4952 18.8699 30.4952C17.9563 30.4952 17.0683 30.1938 16.3434 29.6378C15.6185 29.0817 15.0974 28.302 14.8608 27.4196H3.89575C3.61396 27.4196 3.34371 27.3076 3.14445 27.1084C2.94519 26.9091 2.83325 26.6389 2.83325 26.3571C2.83325 26.0753 2.94519 25.805 3.14445 25.6058C3.34371 25.4065 3.61396 25.2946 3.89575 25.2946H14.8608C15.0974 24.4122 15.6185 23.6325 16.3434 23.0764C17.0683 22.5203 17.9563 22.2189 18.8699 22.2189C19.7835 22.2189 20.6716 22.5203 21.3964 23.0764C22.1213 23.6325 22.6424 24.4122 22.8791 25.2946H30.1041C30.3859 25.2946 30.6561 25.4065 30.8554 25.6058C31.0546 25.805 31.1666 26.0753 31.1666 26.3571ZM31.1666 7.64292C31.1666 7.92471 31.0546 8.19496 30.8554 8.39422C30.6561 8.59348 30.3859 8.70542 30.1041 8.70542H26.6332C26.3966 9.58783 25.8755 10.3675 25.1506 10.9236C24.4257 11.4797 23.5377 11.7811 22.6241 11.7811C21.7105 11.7811 20.8224 11.4797 20.0976 10.9236C19.3727 10.3675 18.8516 9.58783 18.6149 8.70542H3.89575C3.75622 8.70542 3.61806 8.67794 3.48915 8.62454C3.36024 8.57114 3.24311 8.49288 3.14445 8.39422C3.04579 8.29556 2.96753 8.17843 2.91413 8.04952C2.86073 7.92061 2.83325 7.78245 2.83325 7.64292C2.83325 7.50339 2.86073 7.36522 2.91413 7.23632C2.96753 7.10741 3.04579 6.99028 3.14445 6.89162C3.24311 6.79295 3.36024 6.71469 3.48915 6.66129C3.61806 6.6079 3.75622 6.58042 3.89575 6.58042H18.6149C18.8516 5.69801 19.3727 4.91832 20.0976 4.36224C20.8224 3.80616 21.7105 3.50476 22.6241 3.50476C23.5377 3.50476 24.4257 3.80616 25.1506 4.36224C25.8755 4.91832 26.3966 5.69801 26.6332 6.58042H30.1041C30.2441 6.57851 30.3832 6.60469 30.5129 6.65741C30.6427 6.71013 30.7606 6.78832 30.8596 6.88737C30.9587 6.98641 31.0369 7.1043 31.0896 7.23407C31.1423 7.36384 31.1685 7.50286 31.1666 7.64292ZM31.1666 16.9929C31.1685 17.133 31.1423 17.272 31.0896 17.4018C31.0369 17.5315 30.9587 17.6494 30.8596 17.7485C30.7606 17.8475 30.6427 17.9257 30.5129 17.9784C30.3832 18.0311 30.2441 18.0573 30.1041 18.0554H13.5291C13.2924 18.9378 12.7713 19.7175 12.0464 20.2736C11.3216 20.8297 10.4335 21.1311 9.51992 21.1311C8.60633 21.1311 7.71826 20.8297 6.9934 20.2736C6.26855 19.7175 5.74739 18.9378 5.51075 18.0554H3.89575C3.61396 18.0554 3.34371 17.9435 3.14445 17.7442C2.94519 17.545 2.83325 17.2747 2.83325 16.9929C2.83325 16.7111 2.94519 16.4409 3.14445 16.2416C3.34371 16.0424 3.61396 15.9304 3.89575 15.9304H5.51075C5.74739 15.048 6.26855 14.2683 6.9934 13.7122C7.71826 13.1562 8.60633 12.8548 9.51992 12.8548C10.4335 12.8548 11.3216 13.1562 12.0464 13.7122C12.7713 14.2683 13.2924 15.048 13.5291 15.9304H30.1041C30.3859 15.9304 30.6561 16.0424 30.8554 16.2416C31.0546 16.4409 31.1666 16.7111 31.1666 16.9929Z" fill="#B4BB5F"/>
</svg>
