<svg width="33" height="24" viewBox="0 0 33 24" fill="none" xmlns="http://www.w3.org/2000/svg">
<path d="M8.65695 24C5.36786 24 3.2974 23.7578 2.50327 23.2813C-0.449312 21.5096 -0.412758 6.59132 0.689318 2.61264C0.854429 2.01733 1.13839 1.22605 1.70057 1.22605C1.76512 1.21577 11.7215 0 18.6785 0C22.2961 0 24.4619 0.317073 25.3001 0.968949C27.218 2.46067 27.2408 7.52485 27.2597 11.5932C27.27 13.7751 27.2791 15.837 27.6036 16.5923C28.0293 17.5858 29.365 18.1891 30.5436 18.721C31.8542 19.3129 33.0929 19.8722 32.6712 20.9257C32.0719 22.4203 16.624 24 8.65695 24ZM18.6779 0.571878C11.7563 0.571878 1.83481 1.78309 1.7354 1.79566C1.69826 1.79852 1.3212 1.93448 0.98584 3.96609C0.0534459 9.61016 0.62077 21.4862 2.79636 22.7917C3.19285 23.0293 4.48175 23.4287 8.65695 23.4287C17.7689 23.4287 31.4606 21.6896 32.1451 20.7029C32.3433 20.2047 31.5829 19.8179 30.3065 19.242C29.0331 18.6667 27.5899 18.0154 27.0769 16.8179C26.7078 15.9552 26.6987 14.0316 26.6872 11.5961C26.6695 7.65111 26.6472 2.74176 24.9487 1.41972C24.4517 1.03351 22.9588 0.571878 18.6779 0.571878Z" fill="#261D2A"/>
<path d="M17.2471 4.31326C18.02 4.12571 18.9845 4.20249 20.1807 4.83376C20.7045 5.11023 21.0199 5.51187 21.1855 6.01833C21.3562 6.54017 21.3745 7.19648 21.2451 7.96462C20.9855 9.50482 20.159 11.3532 19.1084 13.1365C18.0624 14.9119 16.8186 16.5806 15.7637 17.7556C15.2343 18.3453 14.7661 18.7969 14.4033 19.074C14.2196 19.2143 14.0834 19.2931 13.9961 19.3289C13.9909 19.331 13.9858 19.3321 13.9814 19.3338C13.9643 19.3269 13.9418 19.3183 13.915 19.3074C13.8414 19.2773 13.732 19.2311 13.5928 19.1707C13.314 19.0496 12.9149 18.8685 12.4385 18.6306C11.4836 18.1539 10.2245 17.453 8.99902 16.5515C6.50939 14.7201 4.33735 12.2011 4.76953 9.17556C5.00906 7.49915 5.56535 6.39732 6.23535 5.72732C6.8988 5.06398 7.70736 4.78922 8.54102 4.82009C10.2381 4.88301 12.0754 6.2256 12.8018 8.27224L13.3037 9.68826L13.75 8.25466L13.751 8.25271C13.7516 8.25072 13.7523 8.24688 13.7539 8.24197C13.7571 8.23216 13.7624 8.21676 13.7695 8.19607C13.7838 8.15444 13.8057 8.09124 13.8359 8.0115C13.8966 7.85189 13.9893 7.62456 14.1162 7.35915C14.3718 6.82449 14.7589 6.15116 15.2871 5.56521C15.815 4.9797 16.4644 4.50319 17.2471 4.31326Z" stroke="black"/>
<path d="M13.1681 15.3988C13.127 15.3988 13.0847 15.3902 13.039 15.3753C12.7048 15.2639 12.3117 14.4652 10.8257 10.8791C10.4772 10.0375 10.1693 9.29479 9.96875 8.85887C9.8105 9.24337 9.6071 10.0238 9.45056 10.6288C8.92666 12.6456 8.59245 13.7831 7.94057 13.6723C7.26527 13.5597 4.66919 13.7391 3.72652 13.8179C3.57055 13.8248 3.43057 13.7145 3.418 13.5574C3.40486 13.4003 3.52197 13.2615 3.67852 13.2489C3.82078 13.2369 7.15158 12.9638 8.03427 13.1089C8.2548 12.9587 8.657 11.4104 8.89753 10.4854C9.35458 8.72462 9.53627 8.15158 9.9419 8.10874C10.0459 8.09788 10.243 8.12187 10.3852 8.40639C10.5841 8.80346 10.9406 9.66387 11.3531 10.6603C11.8884 11.9514 12.7379 14.0019 13.1316 14.6663C13.3481 14.2459 13.7132 13.2963 14.0177 12.5039C15.0798 9.73642 15.6431 8.42239 16.2121 8.32812C16.3715 8.30356 16.5241 8.36298 16.6332 8.49381C17.0011 8.9343 17.2657 9.91925 17.5467 10.9613C17.7513 11.7223 18.0946 12.9952 18.3363 13.1129C18.8179 13.2078 22.1333 12.9055 24.2392 12.6776C24.3929 12.6622 24.5368 12.7741 24.554 12.9307C24.5711 13.0872 24.4574 13.2283 24.3009 13.2455C23.7558 13.3049 18.9522 13.8197 18.2158 13.67C17.6804 13.5626 17.4171 12.6736 16.9954 11.1099C16.7715 10.278 16.5195 9.34278 16.2538 8.94C15.8448 9.33992 15.0112 11.5104 14.5519 12.7084C13.7258 14.8583 13.4927 15.3988 13.1681 15.3988Z" fill="#0D0D0D"/>
</svg>
