<svg width="21" height="24" viewBox="0 0 21 24" fill="none" xmlns="http://www.w3.org/2000/svg">
<path fill-rule="evenodd" clip-rule="evenodd" d="M12.3452 9.19969C12.2795 8.98935 12.1615 8.79916 12.0021 8.64698C11.8428 8.49479 11.6473 8.38561 11.4342 8.32969C10.8319 8.22258 10.2155 8.22258 9.6132 8.32969C9.3832 8.34969 9.1532 8.34969 8.9232 8.32969C8.85475 8.32752 8.78747 8.31131 8.72555 8.28207C8.66362 8.25282 8.60836 8.21117 8.5632 8.15969C8.3122 7.76969 8.6432 7.50869 9.0432 7.32869C9.57578 7.08576 10.1584 6.97267 10.7432 6.99869C10.8161 7.02064 10.8948 7.01302 10.9621 6.97747C11.0295 6.94192 11.0802 6.88129 11.1032 6.80869C11.1103 6.77245 11.11 6.73513 11.1021 6.69903C11.0943 6.66294 11.0791 6.62884 11.0575 6.59885C11.036 6.56885 11.0085 6.5436 10.9768 6.52465C10.9451 6.5057 10.9098 6.49347 10.8732 6.48869C10.5452 6.41608 10.2082 6.39249 9.8732 6.41869C9.86781 6.3923 9.86781 6.36509 9.8732 6.33869C9.88204 6.26228 9.88204 6.1851 9.8732 6.10869C9.88968 6.03595 9.88968 5.96044 9.8732 5.88769C9.8232 5.69769 9.7332 5.54769 9.6732 5.36769C9.6732 5.28282 9.63948 5.20143 9.57947 5.14142C9.51946 5.08141 9.43807 5.04769 9.3532 5.04769C9.26742 5.05029 9.18603 5.0862 9.12629 5.14781C9.06655 5.20942 9.03316 5.29188 9.0332 5.37769C8.96865 5.56436 8.91523 5.7547 8.8732 5.94769C8.8672 6.02769 8.8672 6.10769 8.8732 6.18769C8.86186 6.26769 8.86186 6.34769 8.8732 6.42769L8.9332 6.55769C8.56833 6.64224 8.22656 6.80612 7.9322 7.03769C7.70694 7.22536 7.55889 7.48958 7.51645 7.77969C7.474 8.06979 7.54015 8.36535 7.7022 8.60969C7.80404 8.79525 7.94719 8.95489 8.12059 9.07627C8.29399 9.19765 8.49299 9.27752 8.7022 9.30969C9.28741 9.3745 9.87799 9.3745 10.4632 9.30969C10.6754 9.2785 10.891 9.2785 11.1032 9.30969C11.1605 9.32199 11.2135 9.34933 11.2568 9.38891C11.3 9.4285 11.332 9.47889 11.3493 9.5349C11.3666 9.59092 11.3687 9.65053 11.3553 9.70762C11.3419 9.7647 11.3136 9.81719 11.2732 9.85969C11.1003 10.0419 10.893 10.1881 10.6632 10.2897C10.1575 10.5155 9.60656 10.6216 9.0532 10.5997C8.89199 10.5845 8.73551 10.5369 8.5932 10.4597C8.42757 10.3754 8.27277 10.2713 8.1322 10.1497C8.09937 10.1234 8.06169 10.1038 8.02131 10.0921C7.98092 10.0804 7.93863 10.0768 7.89683 10.0814C7.85504 10.0861 7.81458 10.0989 7.77775 10.1192C7.74092 10.1395 7.70845 10.1668 7.6822 10.1997C7.62593 10.2591 7.59458 10.3379 7.59458 10.4197C7.59458 10.5015 7.62593 10.5803 7.6822 10.6397C7.88486 10.8264 8.10486 10.99 8.3422 11.1307C8.51953 11.2214 8.7062 11.2847 8.9022 11.3207C9.0822 11.3367 9.2622 11.3367 9.4422 11.3207C9.43779 11.3973 9.43779 11.4741 9.4422 11.5507C9.43779 11.6273 9.43779 11.7041 9.4422 11.7807C9.5022 11.9707 9.5822 12.1207 9.6522 12.3007C9.65204 12.3424 9.66031 12.3838 9.67651 12.4222C9.69271 12.4607 9.71651 12.4955 9.74649 12.5245C9.77646 12.5536 9.81199 12.5763 9.85095 12.5912C9.88991 12.6062 9.93149 12.6132 9.9732 12.6117C10.0152 12.6132 10.057 12.6059 10.0959 12.5902C10.1349 12.5745 10.1701 12.5508 10.1993 12.5206C10.2286 12.4905 10.2511 12.4545 10.2656 12.4151C10.28 12.3756 10.286 12.3336 10.2832 12.2917C10.3552 12.1064 10.4119 11.9164 10.4532 11.7217C10.4632 11.637 10.4632 11.5537 10.4532 11.4717C10.462 11.3953 10.462 11.3181 10.4532 11.2417C10.9312 11.1427 11.3832 10.9487 11.7842 10.6707C12.0243 10.5193 12.2088 10.294 12.3098 10.0287C12.4107 9.76338 12.4228 9.47245 12.3442 9.19969" fill="black"/>
<path fill-rule="evenodd" clip-rule="evenodd" d="M2.57878 8.78969C2.08283 7.98699 1.81105 7.06606 1.79171 6.1227C1.77236 5.17935 2.00616 4.24805 2.46878 3.42569C2.66859 3.06467 2.95705 2.76047 3.30696 2.54178C3.65687 2.32309 4.0567 2.1971 4.46878 2.17569C5.38455 2.09878 6.30215 2.30099 7.10078 2.75569C7.69622 3.1434 8.20407 3.65125 8.59178 4.24669C8.98178 4.69669 9.35178 4.59669 9.59178 4.39669C9.69844 4.27336 9.78878 4.14002 9.86278 3.99669C10.1028 3.60669 10.2828 2.99669 10.5128 2.68569C10.9148 2.10269 11.4628 1.63569 12.1038 1.33569C12.7273 1.04104 13.4305 0.959858 14.1048 1.10469C14.5417 1.22326 14.9474 1.4361 15.2932 1.72824C15.6391 2.02038 15.9168 2.38474 16.1068 2.79569C16.5288 3.64169 16.7548 4.57169 16.7668 5.51769C16.7181 7.36498 16.1345 9.15848 15.0868 10.6807C14.0819 12.2455 12.6121 13.4561 10.8838 14.1427C10.8448 14.1561 10.8089 14.1772 10.7781 14.2047C10.7474 14.2322 10.7224 14.2655 10.7047 14.3028C10.6871 14.34 10.677 14.3804 10.6751 14.4216C10.6732 14.4628 10.6796 14.504 10.6938 14.5427C10.7062 14.5826 10.7265 14.6195 10.7536 14.6514C10.7806 14.6832 10.8138 14.7092 10.8512 14.7279C10.8885 14.7466 10.9293 14.7575 10.971 14.7601C11.0127 14.7626 11.0544 14.7567 11.0938 14.7427C12.9763 14.0451 14.5928 12.7749 15.7158 11.1107C16.8646 9.46752 17.521 7.53076 17.6078 5.52769C17.6387 4.21012 17.2917 2.91125 16.6078 1.78469C16.1121 0.975133 15.3294 0.382336 14.4158 0.12469C13.5131 -0.104336 12.5591 -0.0160696 11.7138 0.37469C10.8804 0.735338 10.161 1.31612 9.63278 2.05469C9.42874 2.41479 9.25159 2.78948 9.10278 3.17569C8.6984 2.62656 8.18801 2.16411 7.60178 1.81569C6.43141 1.157 5.0567 0.96077 3.74878 1.26569C3.28606 1.38041 2.85391 1.59462 2.48243 1.89339C2.11094 2.19217 1.80905 2.56834 1.59778 2.99569C1.09179 3.96222 0.851131 5.04563 0.900318 6.13549C0.949506 7.22534 1.28679 8.28267 1.87778 9.19969C3.52578 11.6833 5.92345 13.5762 8.72178 14.6027C9.06178 14.7627 9.24178 14.3227 9.04178 14.1127C6.37561 13.0718 4.11137 11.2069 2.57878 8.78969Z" fill="black"/>
<path fill-rule="evenodd" clip-rule="evenodd" d="M20.109 16.1337C20.0921 15.8503 19.971 15.5832 19.769 15.3837C19.6716 15.3185 19.5622 15.2734 19.4471 15.2511C19.3321 15.2288 19.2137 15.2297 19.099 15.2537C18.579 15.3337 17.268 15.6437 17.157 15.6537C15.4411 15.7331 13.8156 16.4461 12.595 17.6547C11.6428 18.7833 11.072 20.1841 10.964 21.6567C10.884 21.1567 10.814 20.6567 10.744 20.0767C10.674 19.4967 10.574 18.8557 10.484 18.2647C10.2617 17.0731 10.1015 15.8709 10.004 14.6627C10.0081 14.6263 10.0049 14.5895 9.99433 14.5545C9.98381 14.5195 9.96629 14.4869 9.94281 14.4589C9.91934 14.4308 9.89041 14.4078 9.85778 14.3913C9.82515 14.3748 9.78951 14.365 9.753 14.3627C8.973 14.2827 9.393 15.6627 9.393 17.9247C9.417 18.3954 9.47033 18.8624 9.553 19.3257C9.623 19.7857 9.713 20.2557 9.813 20.7067C9.80925 20.7566 9.80925 20.8068 9.813 20.8567C9.20035 19.9874 8.43002 19.2408 7.542 18.6557C6.69058 18.142 5.70231 17.9012 4.71 17.9657C4.28928 17.9885 3.87289 18.0624 3.47 18.1857C2.899 18.3457 2.348 18.5857 1.808 18.7857L0.908 19.0857H0.428C0.305896 19.1205 0.198296 19.1939 0.121188 19.2948C0.0440801 19.3956 0.00157899 19.5187 0 19.6457C0 19.7527 0.0299999 19.8557 0.0869999 19.9457C0.284 20.2257 0.54 20.4587 0.837 20.6257C1.357 20.9467 2.078 21.2167 2.418 21.4167C3.85883 22.3269 5.44162 22.9901 7.101 23.3787C8.25514 23.6254 9.45797 23.4957 10.533 23.0087C10.6423 23.292 10.7723 23.5654 10.923 23.8287C10.9628 23.9044 11.031 23.9612 11.1127 23.9866C11.1944 24.012 11.2828 24.004 11.3585 23.9642C11.4342 23.9244 11.491 23.8562 11.5164 23.7745C11.5419 23.6928 11.5338 23.6044 11.494 23.5287C11.4554 23.4592 11.4251 23.3853 11.404 23.3087C11.4496 23.335 11.5013 23.3489 11.554 23.3489C11.6067 23.3489 11.6584 23.335 11.704 23.3087C12.1519 22.9855 12.6485 22.7357 13.175 22.5687C14.5511 22.2813 15.8926 21.8482 17.177 21.2767C17.8784 20.8525 18.4932 20.2994 18.989 19.6467C19.4934 18.9843 19.8543 18.2242 20.049 17.4147C20.142 16.9947 20.162 16.5597 20.109 16.1337ZM10.303 22.4287C9.34594 22.8019 8.2958 22.8648 7.301 22.6087C5.76938 22.1636 4.32234 21.4671 3.019 20.5477C2.739 20.3777 2.239 20.1577 1.779 19.9077L2.249 19.7577C2.769 19.5477 3.249 19.3177 3.839 19.1367C4.165 19.022 4.49833 18.942 4.839 18.8967C5.65497 18.7966 6.4821 18.9465 7.211 19.3267C8.45775 20.1235 9.51623 21.1819 10.313 22.4287H10.303ZM19.109 16.6157C19.0896 16.8039 19.0596 16.9909 19.019 17.1757C18.842 17.8409 18.5321 18.4634 18.108 19.0057C17.7141 19.5782 17.2153 20.0709 16.638 20.4577C15.4409 21.0472 14.1867 21.513 12.895 21.8477C12.3071 22.0643 11.7568 22.3717 11.264 22.7587V22.8587C11.264 22.8887 11.214 22.6487 11.184 22.5387C11.2524 22.5416 11.3194 22.5185 11.3714 22.4739C11.4233 22.4294 11.4565 22.3667 11.464 22.2987C11.5719 20.7765 12.1886 19.3349 13.215 18.2057C14.3349 17.213 15.7815 16.6683 17.278 16.6757C17.378 16.6757 18.458 16.4257 19.088 16.3257C19.1013 16.421 19.108 16.5177 19.108 16.6157" fill="black"/>
</svg>
