<svg width="24" height="24" viewBox="0 0 24 24" fill="none" xmlns="http://www.w3.org/2000/svg">
<path d="M4 14.0003H6.395C6.689 14.0003 6.979 14.0663 7.242 14.1943L9.284 15.1823C9.547 15.3093 9.837 15.3753 10.132 15.3753H11.174C12.182 15.3753 13 16.1663 13 17.1423C13 17.1823 12.973 17.2163 12.934 17.2273L10.393 17.9303C9.93705 18.0563 9.45086 18.0122 9.025 17.8063L6.842 16.7503M8.396 2.55231C9.87 1.63831 11.158 2.00631 11.931 2.59331C12.248 2.83331 12.407 2.95331 12.5 2.95331C12.593 2.95331 12.752 2.83331 13.069 2.59331C13.842 2.00631 15.129 1.63831 16.604 2.55231C18.54 3.75231 18.978 7.70831 14.514 11.0463C13.663 11.6823 13.238 12.0003 12.5 12.0003C11.762 12.0003 11.337 11.6823 10.487 11.0463C6.022 7.70831 6.46 3.75131 8.396 2.55231Z" stroke="#007F5E" stroke-linecap="round" stroke-linejoin="round"/>
<path d="M13 16.5003L17.593 15.0893C17.9929 14.9666 18.4213 14.9734 18.817 15.1086C19.2128 15.2438 19.5558 15.5006 19.797 15.8423C20.166 16.3523 20.016 17.0843 19.478 17.3943L11.963 21.7313C11.728 21.8673 11.4678 21.954 11.1982 21.9861C10.9287 22.0183 10.6554 21.9952 10.395 21.9183L4 20.0203" stroke="#007F5E" stroke-linecap="round" stroke-linejoin="round"/>
</svg>
