<svg width="24" height="24" viewBox="0 0 24 24" fill="none" xmlns="http://www.w3.org/2000/svg">
<g clip-path="url(#clip0_355_7895)">
<path fill-rule="evenodd" clip-rule="evenodd" d="M22.4178 12.1104C21.1758 10.2214 19.7622 8.45096 18.1949 6.82169C16.54 5.2281 14.7522 3.77847 12.851 2.48856C12.4013 2.19669 11.8821 2.02931 11.3466 2.00349C10.811 1.97766 10.2782 2.09432 9.80242 2.34155C7.27099 4.76854 4.95486 7.41054 2.88007 10.2378C1.57535 11.945 0.235718 13.2663 0.401105 14.0932C0.417526 14.2112 0.467343 14.322 0.544684 14.4127C0.622024 14.5033 0.723662 14.5699 0.837616 14.6047C0.95157 14.6394 1.07309 14.6409 1.18784 14.6089C1.3026 14.5769 1.40581 14.5127 1.48531 14.424C1.74257 14.1667 0.603242 15.5817 3.89076 11.4121C4.31342 16.9213 2.05313 20.4643 6.02058 21.2912C6.88059 21.4988 7.76265 21.6036 8.64655 21.6036C10.905 21.2544 9.21622 16.6089 11.199 16.4068C12.5589 16.2414 12.5221 20.0802 12.7426 20.795C12.7923 20.9844 12.8817 21.161 13.005 21.3131C13.1283 21.4652 13.2825 21.5893 13.4575 21.6771C14.5417 22.1916 18.691 22.1365 19.608 21.1809C20.525 20.2254 20.2328 19.086 20.3247 11.8715C21.4824 13.2313 22.4747 14.7915 23.2263 14.4056C23.3452 14.3565 23.4461 14.272 23.5152 14.1634C23.5843 14.0549 23.6181 13.9277 23.6122 13.7992C23.6122 13.009 22.5096 12.2758 22.4178 12.1104ZM18.3786 19.8211C17.7851 20.0075 17.1609 20.0761 16.541 20.0232C16.0214 20.0548 15.5004 20.0548 14.9809 20.0232C14.9498 19.7252 14.8945 19.4302 14.8155 19.1412C14.4296 16.4233 13.6026 13.7973 10.9601 14.1649C8.68147 14.4221 8.04013 16.0025 7.92987 18.2407V19.3066C7.41597 19.2705 6.90017 19.2705 6.38627 19.3066C4.55231 19.0677 5.48766 17.1749 5.41416 14.7897C5.42519 13.2663 5.28552 11.7484 4.9915 10.2544C6.40648 8.76591 7.93171 7.14879 9.71238 5.4986C11.1439 4.102 10.758 3.53234 13.1634 5.31484C15.3158 6.71646 17.2892 8.37521 19.0402 10.2544C18.9851 10.4749 18.6727 19.3066 18.3786 19.8211Z" fill="#B4BB5F"/>
</g>
<defs>
<clipPath id="clip0_355_7895">
<rect width="24" height="24" fill="white"/>
</clipPath>
</defs>
</svg>
