<svg width="35" height="35" viewBox="0 0 35 35" fill="none" xmlns="http://www.w3.org/2000/svg">
<rect x="0.5" y="0.5" width="34" height="34" rx="17" fill="#007F5E"/>
<rect x="0.5" y="0.5" width="34" height="34" rx="17" stroke="#DFD383"/>
<path d="M17.5 16.8333H23.1887C23.218 17.0902 23.2329 17.3533 23.2333 17.6227C23.2333 19.4453 22.58 20.98 21.448 22.0227C20.458 22.9367 19.1027 23.4727 17.4867 23.4727C16.7004 23.473 15.9219 23.3184 15.1954 23.0177C14.469 22.717 13.8089 22.2761 13.2529 21.7202C12.6969 21.1643 12.256 20.5043 11.9552 19.7779C11.6544 19.0515 11.4997 18.2729 11.5 17.4867C11.4997 16.7004 11.6543 15.9217 11.955 15.1953C12.2557 14.4688 12.6967 13.8087 13.2527 13.2527C13.8087 12.6967 14.4688 12.2557 15.1953 11.955C15.9217 11.6543 16.7004 11.4997 17.4867 11.5C19.1 11.5 20.4553 12.0933 21.492 13.0593L20.5173 14.0333C19.7453 13.2873 18.702 12.8333 17.5 12.8333C16.2623 12.8333 15.0753 13.325 14.2002 14.2002C13.325 15.0753 12.8333 16.2623 12.8333 17.5C12.8333 18.7377 13.325 19.9247 14.2002 20.7998C15.0753 21.675 16.2623 22.1667 17.5 22.1667C19.8513 22.1667 21.596 20.428 21.8847 18.1667H17.5V16.8333Z" fill="white"/>
</svg>
