<svg width="28" height="28" viewBox="0 0 28 28" fill="none" xmlns="http://www.w3.org/2000/svg">
<path d="M4.66663 16.3334H7.46079C7.80379 16.3334 8.14213 16.4104 8.44896 16.5597L10.8313 17.7124C11.1381 17.8605 11.4765 17.9375 11.8206 17.9375H13.0363C14.2123 17.9375 15.1666 18.8604 15.1666 19.999C15.1666 20.0457 15.1351 20.0854 15.0896 20.0982L12.1251 20.9184C11.5932 21.0653 11.026 21.0139 10.5291 20.7737L7.98229 19.5417M9.79529 2.97736C11.515 1.91102 13.0176 2.34036 13.9195 3.02519C14.2893 3.30519 14.4748 3.44519 14.5833 3.44519C14.6918 3.44519 14.8773 3.30519 15.2471 3.02519C16.149 2.34036 17.6505 1.91102 19.3713 2.97736C21.63 4.37736 22.141 8.99269 16.933 12.887C15.9401 13.629 15.4443 14 14.5833 14C13.7223 14 13.2265 13.629 12.2348 12.887C7.02563 8.99269 7.53663 4.37619 9.79529 2.97736Z" stroke="#B4BB5F" stroke-width="1.5" stroke-linecap="round" stroke-linejoin="round"/>
<path d="M15.1666 19.25L20.5251 17.6039C20.9916 17.4607 21.4914 17.4686 21.9532 17.6264C22.4149 17.7841 22.8151 18.0837 23.0965 18.4824C23.527 19.0774 23.352 19.9314 22.7243 20.293L13.9568 25.3529C13.6826 25.5115 13.3791 25.6126 13.0646 25.6501C12.7501 25.6876 12.4312 25.6607 12.1275 25.571L4.66663 23.3567" stroke="#B4BB5F" stroke-width="1.5" stroke-linecap="round" stroke-linejoin="round"/>
</svg>
