<svg width="35" height="35" viewBox="0 0 35 35" fill="none" xmlns="http://www.w3.org/2000/svg">
<rect x="0.5" y="0.5" width="34" height="34" rx="17" stroke="white"/>
<g clip-path="url(#clip0_1032_8029)">
<mask id="mask0_1032_8029" style="mask-type:luminance" maskUnits="userSpaceOnUse" x="10" y="10" width="15" height="15">
<path d="M10.5 10.5H24.5V24.5H10.5V10.5Z" fill="white"/>
</mask>
<g mask="url(#mask0_1032_8029)">
<path d="M11.5 16.8333C11.5 14.3193 11.5 13.062 12.2813 12.2813C13.0627 11.5007 14.3193 11.5 16.8333 11.5H18.1667C20.6807 11.5 21.938 11.5 22.7187 12.2813C23.4993 13.0627 23.5 14.3193 23.5 16.8333V18.1667C23.5 20.6807 23.5 21.938 22.7187 22.7187C21.9373 23.4993 20.6807 23.5 18.1667 23.5H16.8333C14.3193 23.5 13.062 23.5 12.2813 22.7187C11.5007 21.9373 11.5 20.6807 11.5 18.1667V16.8333Z" stroke="white" stroke-width="0.75"/>
<path d="M20.5 15.5C21.0523 15.5 21.5 15.0523 21.5 14.5C21.5 13.9477 21.0523 13.5 20.5 13.5C19.9477 13.5 19.5 13.9477 19.5 14.5C19.5 15.0523 19.9477 15.5 20.5 15.5Z" fill="white"/>
<path d="M17.4998 19.8333C18.7885 19.8333 19.8332 18.7886 19.8332 17.5C19.8332 16.2113 18.7885 15.1666 17.4998 15.1666C16.2112 15.1666 15.1665 16.2113 15.1665 17.5C15.1665 18.7886 16.2112 19.8333 17.4998 19.8333Z" stroke="white" stroke-width="0.75"/>
</g>
</g>
<defs>
<clipPath id="clip0_1032_8029">
<rect width="14" height="14" fill="white" transform="translate(10.5 10.5)"/>
</clipPath>
</defs>
</svg>
