<svg width="24" height="24" viewBox="0 0 24 24" fill="none" xmlns="http://www.w3.org/2000/svg">
<path d="M11.999 2C6.47601 2 1.99901 6.477 1.99901 12C1.99901 17.523 6.47601 22 11.999 22C13.7663 22.003 15.5024 21.5353 17.029 20.645L21.995 22L20.643 17.032C21.534 15.5049 22.0021 13.768 21.999 12C21.999 6.477 17.522 2 11.999 2ZM15.407 7.3L15.607 7.308C15.7363 7.31691 15.8627 7.35087 15.979 7.408C16.0874 7.46951 16.1864 7.5463 16.273 7.636C16.393 7.749 16.461 7.847 16.534 7.942C16.9039 8.4229 17.103 9.01331 17.1 9.62C17.098 10.11 16.97 10.587 16.77 11.033C16.361 11.935 15.688 12.89 14.8 13.775C14.586 13.988 14.376 14.202 14.15 14.401C13.0466 15.3724 11.7317 16.073 10.31 16.447L9.74201 16.534C9.55701 16.544 9.37201 16.53 9.18601 16.521C8.89482 16.5056 8.61051 16.4268 8.35301 16.29C8.22216 16.2223 8.09437 16.1489 7.97001 16.07C7.97001 16.07 7.92767 16.0413 7.84501 15.98C7.71001 15.88 7.62701 15.809 7.51501 15.692C7.43101 15.6053 7.36101 15.5047 7.30501 15.39C7.22701 15.227 7.14901 14.916 7.11701 14.657C7.09301 14.459 7.10001 14.351 7.10301 14.284C7.10701 14.177 7.19601 14.066 7.29301 14.019L7.87501 13.758C7.87501 13.758 8.74501 13.379 9.27701 13.137C9.3327 13.1128 9.39234 13.0989 9.45301 13.096C9.52143 13.0888 9.5906 13.0965 9.65582 13.1184C9.72104 13.1403 9.78078 13.176 9.83101 13.223C9.83601 13.221 9.90301 13.278 10.626 14.154C10.6675 14.2098 10.7247 14.2519 10.7902 14.2751C10.8557 14.2982 10.9267 14.3013 10.994 14.284C11.0592 14.2666 11.123 14.2446 11.185 14.218C11.309 14.166 11.352 14.146 11.437 14.11C12.0111 13.8599 12.5426 13.5215 13.012 13.107C13.138 12.997 13.255 12.877 13.375 12.761C13.7684 12.3842 14.1113 11.958 14.395 11.493L14.454 11.398C14.4957 11.3338 14.53 11.265 14.556 11.193C14.594 11.046 14.495 10.928 14.495 10.928C14.495 10.928 14.252 10.662 14.139 10.518C14.029 10.378 13.936 10.242 13.876 10.145C13.758 9.955 13.721 9.76 13.783 9.609C14.063 8.925 14.3523 8.24467 14.651 7.568C14.71 7.434 14.885 7.338 15.044 7.319C15.098 7.31233 15.152 7.307 15.206 7.303C15.3403 7.2953 15.4749 7.29664 15.609 7.307L15.407 7.3Z" fill="#DFD383"/>
</svg>
