<svg width="35" height="35" viewBox="0 0 35 35" fill="none" xmlns="http://www.w3.org/2000/svg">
<rect x="0.5" y="0.5" width="34" height="34" rx="17" stroke="white"/>
<path d="M19.5 17.5L16 19.5V15.5L19.5 17.5Z" fill="white" stroke="white" stroke-linecap="round" stroke-linejoin="round"/>
<path d="M7.5 18.208V16.792C7.5 13.897 7.5 12.449 8.405 11.518C9.311 10.586 10.737 10.546 13.588 10.465C14.938 10.427 16.318 10.4 17.5 10.4C18.682 10.4 20.061 10.427 21.412 10.465C24.263 10.546 25.689 10.586 26.594 11.518C27.499 12.45 27.5 13.898 27.5 16.792V18.207C27.5 21.103 27.5 22.55 26.595 23.482C25.689 24.413 24.264 24.454 21.412 24.534C20.062 24.573 18.682 24.6 17.5 24.6C16.318 24.6 14.939 24.573 13.588 24.534C10.737 24.454 9.311 24.414 8.405 23.482C7.499 22.55 7.5 21.102 7.5 18.208Z" stroke="white"/>
</svg>
